# This file uses centimeters as units for non-parametric coordinates.

mtllib Control Panel NEW.mtl
g default
v -12.407670 12.262730 -6.420580
v 12.407670 12.262730 -6.420580
v -12.407670 0.003240 -6.420580
v 12.407670 0.003240 -6.420580
v 12.407670 12.262729 -0.161341
v -12.407670 12.262729 -0.161341
v -12.407670 0.003240 -0.161341
v 12.407670 0.003240 -0.161341
v 12.407670 23.752940 -2.516664
v -12.407670 23.752940 -2.516664
v 12.407670 23.752940 -6.420578
v -12.407670 23.752940 -6.420578
v -12.407670 0.003240 5.433391
v -11.420481 0.003240 6.420580
v -11.798262 0.003240 6.345435
v -12.118529 0.003240 6.131439
v -12.332524 0.003240 5.811172
v -12.407670 12.262730 5.433391
v -12.332524 12.262730 5.811172
v -12.118529 12.262730 6.131439
v -11.798262 12.262730 6.345435
v -11.420481 12.262730 6.420580
v 12.407670 0.003240 5.433391
v 12.332524 0.003240 5.811172
v 12.118529 0.003240 6.131439
v 11.798262 0.003240 6.345435
v 11.420481 0.003240 6.420580
v 12.407670 12.262730 5.433391
v 11.420481 12.262730 6.420580
v 11.798262 12.262730 6.345435
v 12.118529 12.262730 6.131439
v 12.332524 12.262730 5.811172
vt 0.375000 0.500000
vt 0.625000 0.500000
vt 0.375000 0.750000
vt 0.625000 0.750000
vt 0.875000 0.000000
vt 0.875000 0.250000
vt 0.125000 0.000000
vt 0.125000 0.250000
vt 0.625000 0.360736
vt 0.264264 0.250000
vt 0.375000 0.360736
vt 0.625000 0.360736
vt 0.625000 0.500000
vt 0.375000 0.500000
vt 0.264264 0.000000
vt 0.358391 0.250000
vt 0.384945 -0.000000
vt 0.641609 0.000000
vt 0.735736 0.000000
vt 0.735736 0.250000
vt 0.358391 -0.000000
vt 0.384945 0.250000
vt 0.615055 -0.000000
vt 0.641609 0.250000
vt 0.384945 1.000000
vt 0.375000 0.983391
vt 0.375000 0.889264
vt 0.625000 0.889264
vt 0.625000 0.983391
vt 0.615055 1.000000
vt 0.625000 0.266609
vt 0.375000 0.360736
vt 0.375000 0.266609
vt 0.615055 0.250000
vt 0.379973 1.000000
vt 0.379973 -0.000000
vt 0.375000 1.000000
vt 0.375000 0.000000
vt 0.375000 0.991696
vt 0.366696 -0.000000
vt 0.366696 0.250000
vt 0.375000 0.258304
vt 0.375000 0.250000
vt 0.380281 0.249911
vt 0.625000 0.991696
vt 0.633304 0.000000
vt 0.625000 1.000000
vt 0.625000 0.000000
vt 0.620027 1.000000
vt 0.620027 -0.000000
vt 0.619698 0.249967
vt 0.625000 0.250000
vt 0.633304 0.250000
vt 0.625000 0.258304
vn -0.003236 0.000000 0.999995
vn -0.003236 0.000000 0.999995
vn 0.003236 0.000000 0.999995
vn 0.003236 0.000000 0.999995
vn 0.000000 0.000000 -1.000000
vn 0.000000 0.000000 -1.000000
vn 0.000000 0.000000 -1.000000
vn 0.000000 0.000000 -1.000000
vn 0.999921 0.000000 0.012581
vn 0.999921 0.000000 0.012581
vn 1.000000 -0.000000 0.000000
vn 1.000000 0.000000 0.000000
vn -1.000000 -0.000000 0.000000
vn -0.999921 0.000000 0.012581
vn -0.999921 0.000000 0.012581
vn -1.000000 -0.000000 0.000000
vn 0.000000 1.000000 0.000000
vn 0.000000 1.000000 0.000000
vn 0.000000 1.000000 0.000000
vn 0.000000 1.000000 0.000000
vn -1.000000 -0.000000 0.000000
vn -1.000000 -0.000000 0.000000
vn 0.000000 -1.000000 0.000000
vn 0.000000 -1.000000 0.000000
vn 0.000000 -1.000000 0.000000
vn 0.000000 -1.000000 0.000000
vn 1.000000 -0.000000 0.000000
vn 1.000000 -0.000000 0.000000
vn 0.000000 0.200810 0.979630
vn 0.000000 0.200810 0.979630
vn 0.000000 0.200810 0.979630
vn 0.000000 0.200810 0.979630
vn 1.000000 0.000000 0.000000
vn 1.000000 0.000000 0.000000
vn 0.000000 0.000000 -1.000000
vn 0.000000 0.000000 -1.000000
vn -1.000000 0.000000 0.000000
vn -1.000000 0.000000 0.000000
vn -0.923880 0.000000 0.382683
vn -0.923880 0.000000 0.382683
vn -0.707107 0.000000 0.707106
vn -0.707107 0.000000 0.707106
vn -0.382683 0.000000 0.923880
vn -0.382683 0.000000 0.923880
vn 0.382683 0.000000 0.923880
vn 0.382683 0.000000 0.923880
vn 0.707107 0.000000 0.707106
vn 0.707107 0.000000 0.707106
vn 0.923880 0.000000 0.382683
vn 0.923880 0.000000 0.382683
vn 0.000000 -1.000000 0.000000
vn 0.000000 -1.000000 0.000000
vn 0.000000 -1.000000 0.000000
vn 0.000000 -1.000000 0.000000
vn 0.000000 -1.000000 0.000000
vn 0.000000 -1.000000 0.000000
vn 0.000000 -1.000000 0.000000
vn 0.000000 -1.000000 0.000000
vn 0.000000 -1.000000 0.000000
vn 0.000000 -1.000000 0.000000
vn 0.000000 1.000000 0.000000
vn 0.000000 1.000000 0.000000
vn 0.000000 1.000000 0.000000
vn 0.000000 1.000000 0.000000
vn 0.000000 1.000000 0.000000
vn 0.000000 1.000000 0.000000
vn 0.000000 1.000000 0.000000
vn 0.000000 1.000000 0.000000
vn 0.000000 1.000000 0.000000
vn 0.000000 1.000000 0.000000
vn 0.000000 1.000000 0.000000
vn 0.000000 1.000000 0.000000
s 1
g Control_Panel
usemtl initialShadingGroup
f 22/22/1 14/17/2 27/23/3 29/34/4
s 2
f 1/1/5 2/2/6 4/4/7 3/3/8
s 1
f 28/24/9 23/18/10 8/19/11 5/20/12
f 7/15/13 13/21/14 18/16/15 6/10/16
s off
f 10/11/17 9/12/18 11/13/19 12/14/20
s 1
f 3/7/21 7/15/13 6/10/16 1/8/22
s 5
f 3/3/23 4/4/24 8/28/25 7/27/26
s 1
f 5/20/12 8/19/11 4/5/27 2/6/28
s off
f 6/32/29 5/9/30 9/12/31 10/11/32
s 1
f 5/9/12 2/2/28 11/13/33 9/12/34
s 2
f 2/2/6 1/1/5 12/14/35 11/13/36
s 1
f 1/1/22 6/32/16 10/11/37 12/14/38
f 13/21/14 17/40/39 19/41/40 18/16/15
f 17/40/39 16/38/41 20/43/42 19/41/40
f 16/38/41 15/36/43 21/44/44 20/43/42
f 15/36/43 14/17/2 22/22/1 21/44/44
f 27/23/3 26/50/45 30/51/46 29/34/4
f 26/50/45 25/48/47 31/52/48 30/51/46
f 25/48/47 24/46/49 32/53/50 31/52/48
f 24/46/49 23/18/10 28/24/9 32/53/50
s 5
f 14/25/51 15/35/52 16/37/53 17/39/54 13/26/55 7/27/26 8/28/25 23/29/56 24/45/57 25/47/58 26/49/59 27/30/60
s off
f 28/31/61 5/9/62 6/32/63 18/33/64 19/42/65 20/43/66 21/44/67 22/22/68 29/34/69 30/51/70 31/52/71 32/54/72
g default
v 1.819405 16.090271 -0.504177
v 2.254747 16.089430 -0.504002
v 1.833508 21.574933 -1.669148
v 2.268848 21.574090 -1.668972
v 1.414177 21.790594 -2.145475
v 1.896898 21.789655 -2.145280
v 1.398542 15.707908 -0.859392
v 1.881262 15.706972 -0.859198
v 2.267890 21.100413 -1.573042
v 1.832546 21.101258 -1.573219
v 1.413114 21.265369 -2.039106
v 2.267893 21.016241 -1.988643
v 2.255616 16.518403 -0.590878
v 1.820274 16.519247 -0.591054
v 1.399506 16.183566 -0.955723
v 2.255620 16.434235 -1.006479
v 9.959297 15.691293 -0.855936
v 9.539960 16.075286 -0.501060
v 9.960260 16.166947 -0.952266
v 9.540828 16.504260 -0.587937
v 9.973869 21.248737 -2.035649
v 9.553101 21.086260 -1.570101
v 9.974932 21.773960 -2.142017
v 9.554060 21.559937 -1.666030
v 9.041382 21.087256 -1.570308
v 9.042341 21.560931 -1.666237
v 9.407524 21.775064 -2.142247
v 9.041386 21.003083 -1.985909
v 9.032010 16.373521 -0.997473
v 9.032005 16.457694 -0.581872
v 9.963471 16.114278 -0.944961
v 9.543724 16.456697 -0.581665
vt 0.375000 0.000000
vt 0.625000 0.000000
vt 0.375000 0.250000
vt 0.625000 0.250000
vt 0.375000 0.500000
vt 0.625000 0.500000
vt 0.375000 0.750000
vt 0.625000 0.750000
vt 0.375000 1.000000
vt 0.625000 1.000000
vt 0.875000 0.000000
vt 0.875000 0.250000
vt 0.125000 0.000000
vt 0.125000 0.250000
vt 0.625000 0.233000
vt 0.375000 0.233000
vt 0.125000 0.233000
vt 0.375000 0.517000
vt 0.625000 0.517000
vt 0.875000 0.233000
vt 0.625000 0.015395
vt 0.375000 0.015395
vt 0.125000 0.015395
vt 0.375000 0.734605
vt 0.625000 0.734605
vt 0.875000 0.015395
vt 0.625000 0.000000
vt 0.875000 0.000000
vt 0.875000 0.015395
vt 0.625000 0.015395
vt 0.625000 0.233000
vt 0.875000 0.233000
vt 0.875000 0.250000
vt 0.625000 0.250000
vt 0.625000 0.233000
vt 0.625000 0.250000
vt 0.875000 0.250000
vt 0.875000 0.233000
vt 0.625000 0.233000
vt 0.875000 0.233000
vt 0.875000 0.233000
vt 0.625000 0.233000
vn -0.000011 0.198491 0.980103
vn -0.000010 0.198491 0.980103
vn -0.000002 0.202690 0.979243
vn 0.000009 0.208639 0.977993
vn 0.001604 0.911509 0.411277
vn 0.001605 0.911510 0.411274
vn 0.001605 0.911510 0.411275
vn 0.001604 0.911509 0.411277
vn 0.000020 -0.208113 -0.978105
vn 0.000014 -0.201804 -0.979426
vn 0.000010 -0.198491 -0.980103
vn 0.000010 -0.198491 -0.980103
vn -0.001610 -0.679665 0.733521
vn -0.001615 -0.679663 0.733523
vn -0.001615 -0.679663 0.733523
vn -0.001610 -0.679665 0.733521
vn 0.710525 0.138291 0.689949
vn 0.710525 0.138291 0.689949
vn 0.710525 0.138291 0.689949
vn 0.710525 0.138291 0.689949
vn -0.710268 0.141106 0.689644
vn -0.710268 0.141106 0.689644
vn -0.710379 0.148229 0.688033
vn -0.710380 0.148284 0.688020
vn 0.000009 0.208561 0.978009
vn -0.000002 0.202577 0.979266
vn -0.000010 0.198492 0.980103
vn -0.000012 0.198492 0.980103
vn -0.710406 0.148117 0.688030
vn -0.710403 0.148263 0.688002
vn -0.710537 0.141053 0.689377
vn -0.710537 0.141053 0.689377
vn 0.000010 -0.198491 -0.980103
vn 0.000010 -0.198491 -0.980103
vn 0.000013 -0.201459 -0.979497
vn 0.000020 -0.208056 -0.978117
vn 0.710290 0.144648 0.688887
vn 0.710289 0.144522 0.688914
vn 0.710253 0.138344 0.690218
vn 0.710253 0.138344 0.690218
vn 0.999997 -0.002565 0.000528
vn 0.999997 -0.002565 0.000528
vn 0.999997 -0.002565 0.000528
vn 0.999997 -0.002565 0.000528
vn -0.001616 -0.679663 0.733523
vn -0.001616 -0.679663 0.733523
vn 0.000010 -0.198491 -0.980103
vn 0.000010 -0.198491 -0.980103
vn 0.018375 0.883706 -0.467681
vn 0.018375 0.883706 -0.467681
vn 0.018375 0.883706 -0.467681
vn 0.018375 0.883706 -0.467681
vn -0.000010 0.198491 0.980103
vn -0.000010 0.198491 0.980103
vn -0.001984 -0.980099 0.198501
vn -0.001984 -0.980099 0.198501
vn -0.001984 -0.980099 0.198501
vn -0.001984 -0.980099 0.198501
vn 0.000010 -0.198491 -0.980103
vn -0.000012 -0.201453 -0.979498
vn 0.001605 0.911510 0.411274
vn 0.001605 0.911510 0.411274
vn -0.000001 0.202696 0.979242
vn -0.000010 0.198492 0.980103
vn 0.000009 0.207845 0.978162
vn -0.000010 0.198491 0.980103
vn 0.001606 0.911511 0.411274
vn 0.001606 0.911511 0.411274
vn 0.000010 -0.198491 -0.980103
vn -0.000057 -0.207348 -0.978267
vn -0.176872 -0.900282 0.397755
vn -0.176872 -0.900282 0.397755
vn -0.176872 -0.900282 0.397755
vn -0.176872 -0.900282 0.397755
vn -0.999998 0.001939 -0.000403
vn -0.999998 0.001939 -0.000403
vn -0.999998 0.001939 -0.000403
vn -0.999998 0.001939 -0.000403
vn -0.000064 -0.208268 -0.978072
vn -0.000064 -0.208268 -0.978072
vn 0.710291 0.145225 0.688764
vn 0.710291 0.145225 0.688764
vn 0.000011 0.208799 0.977958
vn 0.000011 0.208799 0.977958
s 1
g Panel2
usemtl initialShadingGroup
f 33/55/73 34/56/74 45/75/75 46/76/76
s 2
f 35/57/77 36/58/78 38/60/79 37/59/80
s 3
f 47/78/81 48/79/82 40/62/83 39/61/84
s 4
f 39/61/85 40/62/86 34/64/87 33/63/88
s off
f 50/81/89 49/82/90 51/83/91 52/84/92
s 5
f 39/67/93 33/55/94 46/76/95 47/77/96
s 1
f 42/70/97 41/69/98 36/58/99 35/57/100
s 5
f 43/71/101 42/70/102 35/57/103 37/68/104
s 3
f 37/59/105 38/60/106 44/73/107 43/72/108
s 7
f 54/85/109 53/86/110 55/87/111 56/88/112
s 1
f 46/76/76 45/75/75 41/69/98 42/70/97
s 5
f 47/77/96 46/76/95 42/70/102 43/71/101
s 3
f 43/72/108 44/73/107 48/79/82 47/78/81
s off
f 45/75/113 48/80/114 44/74/115 41/69/116
s 4
f 34/56/87 40/65/86 49/82/117 50/81/118
s 3
f 40/65/83 48/80/82 51/83/119 49/82/120
s off
f 48/80/121 45/75/122 52/84/123 51/83/124
s 1
f 45/75/75 34/56/74 50/81/125 52/84/126
s off
f 41/69/127 44/74/128 60/92/129 57/89/130
s 3
f 44/74/107 38/66/106 59/91/131 60/92/132
s 2
f 38/66/79 36/58/78 58/90/133 59/91/134
s 1
f 36/58/99 41/69/98 57/89/135 58/90/136
f 58/90/136 57/89/135 54/85/137 56/88/138
s 2
f 59/91/134 58/90/133 56/88/139 55/87/140
s 3
f 60/92/132 59/91/131 55/87/141 53/86/142
s off
f 62/93/143 61/94/144 63/95/145 64/96/146
f 57/89/147 60/92/148 61/94/149 62/93/150
s 3
f 60/92/132 53/86/142 63/95/151 61/94/152
s 7
f 53/86/110 54/85/109 64/96/153 63/95/154
s 1
f 54/85/137 57/89/135 62/93/155 64/96/156
g default
v -12.407482 12.399795 -0.199197
v 12.413606 12.399795 -0.199197
v -12.407482 12.240652 -0.199197
v 12.413606 12.240652 -0.199197
v -12.610724 12.240652 5.599134
v -11.588731 12.240652 6.622248
v -11.979831 12.240652 6.544369
v -12.311389 12.240652 6.322585
v -12.532929 12.240652 5.990663
v -12.610724 12.399795 5.599134
v -12.532929 12.399795 5.990663
v -12.311389 12.399795 6.322585
v -11.979831 12.399795 6.544369
v -11.588731 12.399795 6.622248
v 12.610724 12.240652 5.599134
v 12.532929 12.240652 5.990663
v 12.311389 12.240652 6.322585
v 11.979831 12.240652 6.544369
v 11.588731 12.240652 6.622248
v 12.610724 12.399795 5.599134
v 11.588731 12.399795 6.622248
v 11.979831 12.399795 6.544369
v 12.311389 12.399795 6.322585
v 12.532929 12.399795 5.990663
vt 0.625000 0.500000
vt 0.375000 0.750000
vt 0.125000 0.000000
vt 0.337504 0.250000
vt 0.125000 0.250000
vt 0.385130 0.000000
vt 0.662496 0.000000
vt 0.875000 0.000000
vt 0.875000 0.250000
vt 0.337504 0.000000
vt 0.385130 0.250000
vt 0.614870 0.000000
vt 0.662496 0.250000
vt 0.385130 1.000000
vt 0.375000 0.962504
vt 0.625000 0.750000
vt 0.625000 0.962504
vt 0.614870 1.000000
vt 0.625000 0.287496
vt 0.375000 0.500000
vt 0.375000 0.287496
vt 0.614870 0.250000
vt 0.381539 1.000000
vt 0.381539 -0.000000
vt 0.375000 1.000000
vt 0.375000 0.000000
vt 0.375000 0.982661
vt 0.357661 -0.000000
vt 0.357661 0.250000
vt 0.375000 0.267339
vt 0.375000 0.250000
vt 0.380963 0.249855
vt 0.625000 0.982661
vt 0.642339 -0.000000
vt 0.625000 1.000000
vt 0.625000 0.000000
vt 0.618461 1.000000
vt 0.618461 -0.000000
vt 0.619025 0.249929
vt 0.625000 0.250000
vt 0.642339 0.250000
vt 0.625000 0.267339
vn -0.003304 0.000000 0.999995
vn -0.003304 0.000000 0.999995
vn 0.003304 0.000000 0.999995
vn 0.003304 0.000000 0.999995
vn 0.000000 0.000000 -1.000000
vn 0.000000 0.000000 -1.000000
vn 0.000000 0.000000 -1.000000
vn 0.000000 0.000000 -1.000000
vn 0.999814 0.000000 -0.019274
vn 0.999814 0.000000 -0.019274
vn 0.999423 0.000000 -0.033976
vn 0.999423 0.000000 -0.033976
vn -0.999386 0.000000 -0.035030
vn -0.999795 0.000000 -0.020262
vn -0.999795 0.000000 -0.020262
vn -0.999386 0.000000 -0.035030
vn -0.924028 0.000000 0.382326
vn -0.924028 0.000000 0.382326
vn -0.707495 0.000000 0.706718
vn -0.707495 0.000000 0.706718
vn -0.383042 0.000000 0.923731
vn -0.383042 0.000000 0.923731
vn 0.383042 0.000000 0.923731
vn 0.383042 0.000000 0.923731
vn 0.707495 0.000000 0.706718
vn 0.707495 0.000000 0.706718
vn 0.924028 0.000000 0.382326
vn 0.924028 0.000000 0.382326
vn 0.000000 -1.000000 0.000000
vn 0.000000 -1.000000 0.000000
vn 0.000000 -1.000000 0.000000
vn 0.000000 -1.000000 0.000000
vn 0.000000 -1.000000 0.000000
vn 0.000000 -1.000000 0.000000
vn 0.000000 -1.000000 0.000000
vn 0.000000 -1.000000 0.000000
vn 0.000000 -1.000000 0.000000
vn 0.000000 -1.000000 0.000000
vn 0.000000 -1.000000 0.000000
vn 0.000000 -1.000000 0.000000
vn 0.000000 1.000000 0.000000
vn 0.000000 1.000000 0.000000
vn 0.000000 1.000000 0.000000
vn 0.000000 1.000000 0.000000
vn 0.000000 1.000000 0.000000
vn 0.000000 1.000000 0.000000
vn 0.000000 1.000000 0.000000
vn 0.000000 1.000000 0.000000
vn 0.000000 1.000000 0.000000
vn 0.000000 1.000000 0.000000
vn 0.000000 1.000000 0.000000
vn 0.000000 1.000000 0.000000
s 1
g Mat
usemtl initialShadingGroup
f 78/107/157 70/102/158 83/108/159 85/118/160
s off
f 65/116/161 66/97/162 68/112/163 67/98/164
s 1
f 84/109/165 79/103/166 68/104/167 66/105/168
f 67/99/169 69/106/170 74/100/171 65/101/172
f 69/106/170 73/124/173 75/125/174 74/100/171
f 73/124/173 72/122/175 76/127/176 75/125/174
f 72/122/175 71/120/177 77/128/178 76/127/176
f 71/120/177 70/102/158 78/107/157 77/128/178
f 83/108/159 82/134/179 86/135/180 85/118/160
f 82/134/179 81/132/181 87/136/182 86/135/180
f 81/132/181 80/130/183 88/137/184 87/136/182
f 80/130/183 79/103/166 84/109/165 88/137/184
s off
f 70/110/185 71/119/186 72/121/187 73/123/188 69/111/189 67/98/190 68/112/191 79/113/192 80/129/193 81/131/194 82/133/195 83/114/196
f 84/115/197 66/97/198 65/116/199 74/117/200 75/126/201 76/127/202 77/128/203 78/107/204 85/118/205 86/135/206 87/136/207 88/138/208
g default
v -9.113163 16.090271 -0.504177
v -8.677821 16.089430 -0.504002
v -9.099060 21.574933 -1.669148
v -8.663720 21.574090 -1.668972
v -9.518391 21.790594 -2.145475
v -9.035671 21.789655 -2.145280
v -9.534026 15.707908 -0.859392
v -9.051307 15.706972 -0.859198
v -8.664678 21.100413 -1.573042
v -9.100022 21.101258 -1.573219
v -9.519454 21.265369 -2.039106
v -8.664675 21.016241 -1.988643
v -8.676952 16.518403 -0.590878
v -9.112294 16.519247 -0.591054
v -9.533062 16.183566 -0.955723
v -8.676948 16.434235 -1.006479
v -0.973271 15.691293 -0.855936
v -1.392608 16.075286 -0.501060
v -0.972309 16.166947 -0.952266
v -1.391741 16.504260 -0.587937
v -0.958699 21.248737 -2.035649
v -1.379467 21.086260 -1.570101
v -0.957636 21.773960 -2.142017
v -1.378508 21.559937 -1.666030
v -1.891186 21.087256 -1.570308
v -1.890227 21.560931 -1.666237
v -1.525045 21.775064 -2.142247
v -1.891182 21.003083 -1.985909
v -1.900558 16.373521 -0.997473
v -1.900563 16.457694 -0.581872
v -0.969097 16.114278 -0.944961
v -1.388844 16.456697 -0.581665
vt 0.375000 0.000000
vt 0.625000 0.000000
vt 0.375000 0.250000
vt 0.625000 0.250000
vt 0.375000 0.500000
vt 0.625000 0.500000
vt 0.375000 0.750000
vt 0.625000 0.750000
vt 0.375000 1.000000
vt 0.625000 1.000000
vt 0.875000 0.000000
vt 0.875000 0.250000
vt 0.125000 0.000000
vt 0.125000 0.250000
vt 0.625000 0.233000
vt 0.375000 0.233000
vt 0.125000 0.233000
vt 0.375000 0.517000
vt 0.625000 0.517000
vt 0.875000 0.233000
vt 0.625000 0.015395
vt 0.375000 0.015395
vt 0.125000 0.015395
vt 0.375000 0.734605
vt 0.625000 0.734605
vt 0.875000 0.015395
vt 0.625000 0.000000
vt 0.875000 0.000000
vt 0.875000 0.015395
vt 0.625000 0.015395
vt 0.625000 0.233000
vt 0.875000 0.233000
vt 0.875000 0.250000
vt 0.625000 0.250000
vt 0.625000 0.233000
vt 0.625000 0.250000
vt 0.875000 0.250000
vt 0.875000 0.233000
vt 0.625000 0.233000
vt 0.875000 0.233000
vt 0.875000 0.233000
vt 0.625000 0.233000
vn -0.000011 0.198491 0.980103
vn -0.000010 0.198491 0.980103
vn -0.000002 0.202690 0.979243
vn 0.000009 0.208639 0.977993
vn 0.001604 0.911509 0.411277
vn 0.001605 0.911510 0.411274
vn 0.001605 0.911510 0.411275
vn 0.001604 0.911509 0.411277
vn 0.000020 -0.208113 -0.978105
vn 0.000014 -0.201804 -0.979426
vn 0.000010 -0.198491 -0.980103
vn 0.000010 -0.198491 -0.980103
vn -0.001610 -0.679665 0.733521
vn -0.001615 -0.679663 0.733523
vn -0.001615 -0.679663 0.733523
vn -0.001610 -0.679665 0.733521
vn 0.710525 0.138291 0.689949
vn 0.710525 0.138291 0.689949
vn 0.710525 0.138291 0.689949
vn 0.710525 0.138291 0.689949
vn -0.710268 0.141106 0.689644
vn -0.710268 0.141106 0.689644
vn -0.710379 0.148229 0.688033
vn -0.710380 0.148284 0.688020
vn 0.000009 0.208561 0.978009
vn -0.000002 0.202577 0.979266
vn -0.000010 0.198492 0.980103
vn -0.000012 0.198492 0.980103
vn -0.710406 0.148117 0.688030
vn -0.710403 0.148263 0.688002
vn -0.710537 0.141053 0.689377
vn -0.710537 0.141053 0.689377
vn 0.000010 -0.198491 -0.980103
vn 0.000010 -0.198491 -0.980103
vn 0.000013 -0.201459 -0.979497
vn 0.000020 -0.208056 -0.978117
vn 0.710290 0.144648 0.688887
vn 0.710289 0.144522 0.688914
vn 0.710253 0.138344 0.690218
vn 0.710253 0.138344 0.690218
vn 0.999997 -0.002565 0.000528
vn 0.999997 -0.002565 0.000528
vn 0.999997 -0.002565 0.000528
vn 0.999997 -0.002565 0.000528
vn -0.001616 -0.679663 0.733523
vn -0.001616 -0.679663 0.733523
vn 0.000010 -0.198491 -0.980103
vn 0.000010 -0.198491 -0.980103
vn 0.018375 0.883706 -0.467681
vn 0.018375 0.883706 -0.467681
vn 0.018375 0.883706 -0.467681
vn 0.018375 0.883706 -0.467681
vn -0.000010 0.198491 0.980103
vn -0.000010 0.198491 0.980103
vn -0.001984 -0.980099 0.198501
vn -0.001984 -0.980099 0.198501
vn -0.001984 -0.980099 0.198501
vn -0.001984 -0.980099 0.198501
vn 0.000010 -0.198491 -0.980103
vn -0.000012 -0.201453 -0.979498
vn 0.001605 0.911510 0.411274
vn 0.001605 0.911510 0.411274
vn -0.000001 0.202696 0.979242
vn -0.000010 0.198492 0.980103
vn 0.000009 0.207845 0.978162
vn -0.000010 0.198491 0.980103
vn 0.001606 0.911511 0.411274
vn 0.001606 0.911511 0.411274
vn 0.000010 -0.198491 -0.980103
vn -0.000057 -0.207348 -0.978267
vn -0.176872 -0.900282 0.397755
vn -0.176872 -0.900282 0.397755
vn -0.176872 -0.900282 0.397755
vn -0.176872 -0.900282 0.397755
vn -0.999998 0.001939 -0.000403
vn -0.999998 0.001939 -0.000403
vn -0.999998 0.001939 -0.000403
vn -0.999998 0.001939 -0.000403
vn -0.000064 -0.208268 -0.978072
vn -0.000064 -0.208268 -0.978072
vn 0.710291 0.145225 0.688764
vn 0.710291 0.145225 0.688764
vn 0.000011 0.208799 0.977958
vn 0.000011 0.208799 0.977958
s 1
g Panel1
usemtl initialShadingGroup
f 89/139/209 90/140/210 101/159/211 102/160/212
s 2
f 91/141/213 92/142/214 94/144/215 93/143/216
s 3
f 103/162/217 104/163/218 96/146/219 95/145/220
s 4
f 95/145/221 96/146/222 90/148/223 89/147/224
s off
f 106/165/225 105/166/226 107/167/227 108/168/228
s 5
f 95/151/229 89/139/230 102/160/231 103/161/232
s 1
f 98/154/233 97/153/234 92/142/235 91/141/236
s 5
f 99/155/237 98/154/238 91/141/239 93/152/240
s 3
f 93/143/241 94/144/242 100/157/243 99/156/244
s 7
f 110/169/245 109/170/246 111/171/247 112/172/248
s 1
f 102/160/212 101/159/211 97/153/234 98/154/233
s 5
f 103/161/232 102/160/231 98/154/238 99/155/237
s 3
f 99/156/244 100/157/243 104/163/218 103/162/217
s off
f 101/159/249 104/164/250 100/158/251 97/153/252
s 4
f 90/140/223 96/149/222 105/166/253 106/165/254
s 3
f 96/149/219 104/164/218 107/167/255 105/166/256
s off
f 104/164/257 101/159/258 108/168/259 107/167/260
s 1
f 101/159/211 90/140/210 106/165/261 108/168/262
s off
f 97/153/263 100/158/264 116/176/265 113/173/266
s 3
f 100/158/243 94/150/242 115/175/267 116/176/268
s 2
f 94/150/215 92/142/214 114/174/269 115/175/270
s 1
f 92/142/235 97/153/234 113/173/271 114/174/272
f 114/174/272 113/173/271 110/169/273 112/172/274
s 2
f 115/175/270 114/174/269 112/172/275 111/171/276
s 3
f 116/176/268 115/175/267 111/171/277 109/170/278
s off
f 118/177/279 117/178/280 119/179/281 120/180/282
f 113/173/283 116/176/284 117/178/285 118/177/286
s 3
f 116/176/268 109/170/278 119/179/287 117/178/288
s 7
f 109/170/246 110/169/245 120/180/289 119/179/290
s 1
f 110/169/273 113/173/271 118/177/291 120/180/292
g default
v 2.163244 16.307333 -0.910755
v 9.095535 16.307333 -0.910755
v 2.163244 21.240646 -1.909877
v 9.095535 21.240646 -1.909877
v 2.163244 21.225074 -1.986767
v 9.095535 21.225074 -1.986767
v 2.163244 16.291761 -0.987646
v 9.095535 16.291761 -0.987646
vt 0.375000 0.000000
vt 0.625000 0.000000
vt 0.375000 0.250000
vt 0.625000 0.250000
vt 0.375000 0.500000
vt 0.625000 0.500000
vt 0.375000 0.750000
vt 0.625000 0.750000
vt 0.375000 1.000000
vt 0.625000 1.000000
vt 0.875000 0.000000
vt 0.875000 0.250000
vt 0.125000 0.000000
vt 0.125000 0.250000
vn 0.000000 0.198496 0.980102
vn 0.000000 0.198496 0.980102
vn 0.000000 0.198496 0.980102
vn 0.000000 0.198496 0.980102
vn 0.000000 0.980102 -0.198496
vn 0.000000 0.980102 -0.198496
vn 0.000000 0.980102 -0.198496
vn 0.000000 0.980102 -0.198496
vn 0.000000 -0.198496 -0.980102
vn 0.000000 -0.198496 -0.980102
vn 0.000000 -0.198496 -0.980102
vn 0.000000 -0.198496 -0.980102
vn 0.000000 -0.980102 0.198496
vn 0.000000 -0.980102 0.198496
vn 0.000000 -0.980102 0.198496
vn 0.000000 -0.980102 0.198496
vn 1.000000 0.000000 0.000000
vn 1.000000 0.000000 0.000000
vn 1.000000 0.000000 0.000000
vn 1.000000 0.000000 0.000000
vn -1.000000 0.000000 0.000000
vn -1.000000 0.000000 0.000000
vn -1.000000 0.000000 0.000000
vn -1.000000 0.000000 0.000000
s off
g Screen1
usemtl initialShadingGroup
f 121/181/293 122/182/294 124/184/295 123/183/296
f 123/183/297 124/184/298 126/186/299 125/185/300
f 125/185/301 126/186/302 128/188/303 127/187/304
f 127/187/305 128/188/306 122/190/307 121/189/308
f 122/182/309 128/191/310 126/192/311 124/184/312
f 127/193/313 121/181/314 123/183/315 125/194/316
g default
v -8.785107 16.307333 -0.910755
v -1.769277 16.307333 -0.910755
v -8.785107 21.240646 -1.909877
v -1.769277 21.240646 -1.909877
v -8.785107 21.225074 -1.986767
v -1.769277 21.225074 -1.986767
v -8.785107 16.291761 -0.987646
v -1.769277 16.291761 -0.987646
vt 0.375000 0.000000
vt 0.625000 0.000000
vt 0.375000 0.250000
vt 0.625000 0.250000
vt 0.375000 0.500000
vt 0.625000 0.500000
vt 0.375000 0.750000
vt 0.625000 0.750000
vt 0.375000 1.000000
vt 0.625000 1.000000
vt 0.875000 0.000000
vt 0.875000 0.250000
vt 0.125000 0.000000
vt 0.125000 0.250000
vn 0.000000 0.198496 0.980102
vn 0.000000 0.198496 0.980102
vn 0.000000 0.198496 0.980102
vn 0.000000 0.198496 0.980102
vn 0.000000 0.980102 -0.198496
vn 0.000000 0.980102 -0.198496
vn 0.000000 0.980102 -0.198496
vn 0.000000 0.980102 -0.198496
vn 0.000000 -0.198496 -0.980102
vn 0.000000 -0.198496 -0.980102
vn 0.000000 -0.198496 -0.980102
vn 0.000000 -0.198496 -0.980102
vn 0.000000 -0.980102 0.198496
vn 0.000000 -0.980102 0.198496
vn 0.000000 -0.980102 0.198496
vn 0.000000 -0.980102 0.198496
vn 1.000000 0.000000 0.000000
vn 1.000000 0.000000 0.000000
vn 1.000000 0.000000 0.000000
vn 1.000000 0.000000 0.000000
vn -1.000000 0.000000 0.000000
vn -1.000000 0.000000 0.000000
vn -1.000000 0.000000 0.000000
vn -1.000000 0.000000 0.000000
s off
g Screen
usemtl initialShadingGroup
f 129/195/317 130/196/318 132/198/319 131/197/320
f 131/197/321 132/198/322 134/200/323 133/199/324
f 133/199/325 134/200/326 136/202/327 135/201/328
f 135/201/329 136/202/330 130/204/331 129/203/332
f 130/196/333 136/205/334 134/206/335 132/198/336
f 135/207/337 129/195/338 131/197/339 133/208/340
