# This file uses centimeters as units for non-parametric coordinates.

mtllib Control Panel.mtl
g default
v -12.407670 0.003240 6.420580
v 12.407670 0.003240 6.420580
v -12.407670 12.262730 6.420580
v 12.407670 12.262730 6.420580
v -12.407670 12.262730 -6.420580
v 12.407670 12.262730 -6.420580
v -12.407670 0.003240 -6.420580
v 12.407670 0.003240 -6.420580
v 12.407670 12.262729 -0.161341
v -12.407670 12.262729 -0.161341
v -12.407670 0.003240 -0.161341
v 12.407670 0.003240 -0.161341
v 12.407670 23.752940 -2.516664
v -12.407670 23.752940 -2.516664
v 12.407670 23.752940 -6.420578
v -12.407670 23.752940 -6.420578
vt 0.375000 0.000000
vt 0.625000 0.000000
vt 0.375000 0.250000
vt 0.625000 0.250000
vt 0.375000 0.500000
vt 0.625000 0.500000
vt 0.375000 0.750000
vt 0.625000 0.750000
vt 0.375000 1.000000
vt 0.625000 1.000000
vt 0.875000 0.000000
vt 0.875000 0.250000
vt 0.125000 0.000000
vt 0.125000 0.250000
vt 0.625000 0.360736
vt 0.735736 0.250000
vt 0.264264 0.250000
vt 0.375000 0.360736
vt 0.264264 0.000000
vt 0.375000 0.889264
vt 0.625000 0.889264
vt 0.735736 0.000000
vt 0.375000 0.360736
vt 0.625000 0.360736
vt 0.625000 0.500000
vt 0.375000 0.500000
vn 0.000000 0.000000 1.000000
vn 0.000000 0.000000 1.000000
vn 0.000000 0.000000 1.000000
vn 0.000000 0.000000 1.000000
vn 0.000000 1.000000 0.000000
vn 0.000000 1.000000 0.000000
vn 0.000000 1.000000 0.000000
vn 0.000000 1.000000 0.000000
vn 0.000000 0.000000 -1.000000
vn 0.000000 0.000000 -1.000000
vn 0.000000 0.000000 -1.000000
vn 0.000000 0.000000 -1.000000
vn 0.000000 -1.000000 0.000000
vn 0.000000 -1.000000 0.000000
vn 0.000000 -1.000000 0.000000
vn 0.000000 -1.000000 0.000000
vn 1.000000 0.000000 0.000000
vn 1.000000 -0.000000 0.000000
vn 1.000000 0.000000 0.000000
vn 1.000000 0.000000 0.000000
vn -1.000000 -0.000000 0.000000
vn -1.000000 0.000000 0.000000
vn -1.000000 0.000000 0.000000
vn -1.000000 -0.000000 0.000000
vn 0.000000 1.000000 0.000000
vn 0.000000 1.000000 0.000000
vn 0.000000 1.000000 0.000000
vn 0.000000 1.000000 0.000000
vn -1.000000 -0.000000 0.000000
vn -1.000000 -0.000000 0.000000
vn 0.000000 -1.000000 0.000000
vn 0.000000 -1.000000 0.000000
vn 1.000000 -0.000000 0.000000
vn 1.000000 -0.000000 0.000000
vn 0.000000 0.200810 0.979630
vn 0.000000 0.200810 0.979630
vn 0.000000 0.200810 0.979630
vn 0.000000 0.200810 0.979630
vn 1.000000 0.000000 0.000000
vn 1.000000 0.000000 0.000000
vn 0.000000 0.000000 -1.000000
vn 0.000000 0.000000 -1.000000
vn -1.000000 0.000000 0.000000
vn -1.000000 0.000000 0.000000
s off
g Control_Panel
usemtl initialShadingGroup
f 1/1/1 2/2/2 4/4/3 3/3/4
f 3/3/5 4/4/6 9/15/7 10/18/8
s 1
f 5/5/9 6/6/10 8/8/11 7/7/12
s 2
f 11/20/13 12/21/14 2/10/15 1/9/16
s 3
f 2/2/17 12/22/18 9/16/19 4/4/20
s 4
f 11/19/21 1/1/22 3/3/23 10/17/24
s off
f 14/23/25 13/24/26 15/25/27 16/26/28
s 4
f 7/13/29 11/19/21 10/17/24 5/14/30
s 2
f 7/7/31 8/8/32 12/21/14 11/20/13
s 3
f 9/16/19 12/22/18 8/11/33 6/12/34
s off
f 10/18/35 9/15/36 13/24/37 14/23/38
s 3
f 9/15/19 6/6/34 15/25/39 13/24/40
s 1
f 6/6/10 5/5/9 16/26/41 15/25/42
s 4
f 5/5/30 10/18/24 14/23/43 16/26/44
g default
v -12.489063 12.240652 6.549083
v 12.489063 12.240652 6.549083
v -12.489063 12.399795 6.549083
v 12.489063 12.399795 6.549083
v -12.489063 12.399795 -0.199148
v 12.489063 12.399795 -0.199148
v -12.489063 12.240652 -0.199148
v 12.489063 12.240652 -0.199148
vt 0.375000 0.000000
vt 0.625000 0.000000
vt 0.375000 0.250000
vt 0.625000 0.250000
vt 0.375000 0.500000
vt 0.625000 0.500000
vt 0.375000 0.750000
vt 0.625000 0.750000
vt 0.375000 1.000000
vt 0.625000 1.000000
vt 0.875000 0.000000
vt 0.875000 0.250000
vt 0.125000 0.000000
vt 0.125000 0.250000
vn 0.000000 0.000000 1.000000
vn 0.000000 0.000000 1.000000
vn 0.000000 0.000000 1.000000
vn 0.000000 0.000000 1.000000
vn 0.000000 1.000000 0.000000
vn 0.000000 1.000000 0.000000
vn 0.000000 1.000000 0.000000
vn 0.000000 1.000000 0.000000
vn 0.000000 0.000000 -1.000000
vn 0.000000 0.000000 -1.000000
vn 0.000000 0.000000 -1.000000
vn 0.000000 0.000000 -1.000000
vn 0.000000 -1.000000 0.000000
vn 0.000000 -1.000000 0.000000
vn 0.000000 -1.000000 0.000000
vn 0.000000 -1.000000 0.000000
vn 1.000000 0.000000 0.000000
vn 1.000000 0.000000 0.000000
vn 1.000000 0.000000 0.000000
vn 1.000000 0.000000 0.000000
vn -1.000000 0.000000 0.000000
vn -1.000000 0.000000 0.000000
vn -1.000000 0.000000 0.000000
vn -1.000000 0.000000 0.000000
s off
g Mat
usemtl initialShadingGroup
f 17/27/45 18/28/46 20/30/47 19/29/48
f 19/29/49 20/30/50 22/32/51 21/31/52
f 21/31/53 22/32/54 24/34/55 23/33/56
f 23/33/57 24/34/58 18/36/59 17/35/60
f 18/28/61 24/37/62 22/38/63 20/30/64
f 23/39/65 17/27/66 19/29/67 21/40/68
